<svg xmlns="http://www.w3.org/2000/svg" width="40" height="40" viewBox="0 0 40 40"><g transform="translate(-302 -1001)"><circle cx="20" cy="20" r="20" transform="translate(302 1001)" fill="#9a27af"/><g transform="translate(280.693 1011)"><g transform="translate(32.307)"><path d="M50.181,8.46,41.6.122a.439.439,0,0,0-.607,0L32.432,8.46a.408.408,0,0,0-.093.454.429.429,0,0,0,.4.257h4.719V19.583a.423.423,0,0,0,.429.417h6.864a.423.423,0,0,0,.429-.417V9.17h4.7a.43.43,0,0,0,.4-.257A.406.406,0,0,0,50.181,8.46Z" transform="translate(-32.307)" fill="#fff"/></g></g></g></svg>