<svg xmlns="http://www.w3.org/2000/svg" width="45" height="48" viewBox="0 0 45 48"><g transform="translate(-16)"><g transform="translate(26.5)"><path d="M151.863,21.879A1.5,1.5,0,0,0,150.5,21h-6V1.5A1.5,1.5,0,0,0,143,0h-6a1.5,1.5,0,0,0-1.5,1.5V21h-6a1.5,1.5,0,0,0-1.128,2.487l10.5,12a1.5,1.5,0,0,0,2.256,0l10.5-12A1.5,1.5,0,0,0,151.863,21.879Z" transform="translate(-127.998)" fill="#fff"/></g><g transform="translate(16 33)"><path d="M55,352v9H22v-9H16v12a3,3,0,0,0,3,3H58a3,3,0,0,0,3-3V352Z" transform="translate(-16 -352)" fill="#fff"/></g></g></svg>