<svg height="512" viewBox="0 0 56 40" width="512" xmlns="http://www.w3.org/2000/svg"><g id="003---Right-Arrow"><path id="Shape" d="m36 10.718c-.0002227.5617704-.2366973 1.0975469-.6515896 1.4762954s-.9699452.5655449-1.5294104.5147046l-28.819-2.609v19.81l28.819-2.614c.5585999-.050764 1.1128446.135373 1.5275684.513017.4147239.3776439.6518072.9120836.6534316 1.472983v9.381l19.552-18.663-19.552-18.663zm-23 5.467c-.4 0 1.414.053-5.037-.185-.26527883-.0096335-.51584221-.124347-.69647767-.3188631-.18063545-.194516-.27651898-.4528715-.26652233-.7181369.00474427-.2669445.11797602-.5204501.31361535-.7021286.19563933-.1816786.4568195-.275867.72338465-.2608714l5 .186c.3572656.0066094.6838665.2033157.8567754.5160215s.1658567.6939036-.0185 1c-.1843567.3060963-.5180098.4905879-.8752754.4839785zm20 .741c-1.344 0 4.665.173-16.037-.593-.550837-.0200821-.9815556-.4821095-.963-1.033.0072219-.2660223.1212396-.5179352.3163379-.6989232s.4548466-.2758088.7206621-.2630768l16 .592c.5522847.0102173.9917173.4662153.9815 1.0185s-.4662153.9917173-1.0185.9815z"/><path id="Shape" d="m0 27.434 3 1.8v-18.468l-3 1.8z"/><path id="Shape" d="m31 37.434 3 1.8v-9.952l-3 .272z"/><path id="Shape" d="m34 .766-3 1.8v7.879l3 .272z"/></g></svg>