<svg xmlns="http://www.w3.org/2000/svg" width="74.355" height="76.5" viewBox="0 0 74.355 76.5">
  <path id="rose-icon" d="M75.994,38.2c.461-1.047.926-2.089,1.349-3.037,2.422-5.427,2.41-5.474,2.272-6.043-1.867-7.664-9.759-11.26-11.75-12.055A15.357,15.357,0,0,0,61.2,9.684,21.258,21.258,0,0,1,52.8.94a1.239,1.239,0,0,0-.932-.73A22.332,22.332,0,0,0,44.8.359,14.641,14.641,0,0,0,36.88,4.311,13.946,13.946,0,0,0,29.8,1.737a16.055,16.055,0,0,0-4.533.036,1.27,1.27,0,0,0-.822.9,14.548,14.548,0,0,1-2.117,4.04c-1.415,2.163-2.874,4.395-2.556,6.785-5.024,2.652-10.349,7.658-11.146,8.419a1.238,1.238,0,0,0-.316.494,38.66,38.66,0,0,0-1.53,6.879c-.688,5.275-.155,9.62,1.583,12.913.052.1.108.192.161.288-1.589,2.908-.975,5.56-.432,7.9.423,1.823.788,3.4.192,4.978a1.254,1.254,0,0,0,.111,1.1c.444.712,6.226,4.842,12.313,5.475a8.923,8.923,0,0,0,.4,1.246c1.385,3.375,4.743,6.066,9.98,8a59.047,59.047,0,0,1,6.244,2.755,23.508,23.508,0,0,0,6.2,2.368,10.374,10.374,0,0,0,1.993.191c3.177,0,6.542-1.4,9.666-4.068a18.068,18.068,0,0,1,2.469-1.61c3.256-1.9,7.694-4.5,7.441-11.126.57-.314,1.129-.651,1.674-1.023a1.24,1.24,0,0,0,.276.215,2.938,2.938,0,0,0,1.477.409c2.188,0,4.327-2.524,6.408-4.98,1.56-1.841,3.328-3.927,4.767-4.5a1.872,1.872,0,0,0,1.122-1.694c.24-2.311-1.848-7.559-4.83-9.923Zm1.138-8.783c-.264.729-1.209,2.846-2.052,4.736-1.257,2.817-2.353,5.3-3.129,7.206-.136-.423-.276-.85-.417-1.278a35.494,35.494,0,0,1-1.68-6.412A13.979,13.979,0,0,0,68.2,28.44a15.556,15.556,0,0,0,.619-8.2C71.5,21.659,75.822,24.609,77.132,29.414ZM61.04,58.947a32.527,32.527,0,0,0-8.252,5.059c-3.731,3.275-8.454,2.151-11.531-.369a13.322,13.322,0,0,0,2.334-2.185,22.467,22.467,0,0,0,8.691-3.091,24.278,24.278,0,0,0,10.68-13.227c2.171-6.9-.141-14.451-3.8-19.266a8.637,8.637,0,0,1,4.894,1.547c1.825,1.344,2.947,3.554,3.335,6.566a37.307,37.307,0,0,0,1.784,6.871c1.126,3.42,2.19,6.65,1.146,9.286-2.162,5.458-5.306,6.936-9.286,8.808ZM21.6,51.882a20.561,20.561,0,0,0-3.528-5.136c-1.6-1.835-2.855-3.284-3.265-6.319C13.855,33.4,18.276,26.613,22.917,23.8a7.522,7.522,0,0,1,3.476-1.223c-2.7,3.012-5.7,7.988-5.6,12.873a9.15,9.15,0,0,0,3.492,7.205,14.557,14.557,0,0,0,1.843,1.281c-.707,2.188-.381,5.416.9,8.374a15.152,15.152,0,0,0,9.786,8.676,15.654,15.654,0,0,0,3.117.561,8.035,8.035,0,0,1-5.954,1.634C29.285,62.609,24.544,58.28,21.6,51.882Zm6.53-39.711a9.678,9.678,0,0,1,11.327-.523,34.575,34.575,0,0,0,10.36,3.736c4.042.931,6.19,1.532,7.018,4a2.765,2.765,0,0,1-1.037,3.12c-2.557-1.847-5.3-2.4-7.722-1.516a13.7,13.7,0,0,0-4.427-2.716A15.62,15.62,0,0,0,28.591,20.49a6.934,6.934,0,0,0-5.556.445C23.135,17.9,25.543,14.127,28.127,12.171ZM37.5,58.6a12.709,12.709,0,0,1-8.2-7.279,10.748,10.748,0,0,1-.9-6.339,12.119,12.119,0,0,0,1.666.452,11.507,11.507,0,0,0,8.518,6.571,12.168,12.168,0,0,0,2.257.212c3.938,0,7.725-1.94,10.644-5.525,3.379-4.149,6.508-9.85.862-17.267a14.422,14.422,0,0,0-2.44-6.353c2.273-.276,4.365,1.257,5.5,2.3,4.258,3.926,7.365,12.11,5.192,19.01a21.77,21.77,0,0,1-9.591,11.846c-4.49,2.693-9.413,3.556-13.508,2.369Zm-7.943-35.7a13.259,13.259,0,0,1,13.205-2.325,10.923,10.923,0,0,1,6.057,5.5,14.151,14.151,0,0,0-6.625-2.358,10.7,10.7,0,0,0-8.078,2.384c-3.643,3.251-4.977,7.247-3.662,10.963A8.845,8.845,0,0,0,36,42.526a9.993,9.993,0,0,1-10.155-1.795,6.77,6.77,0,0,1-2.58-5.333c-.067-3.3,2.115-8.8,6.289-12.492Zm8.79,17.684a3.562,3.562,0,0,1,1.887-6.306,3.6,3.6,0,0,1,.369-.019,3.562,3.562,0,1,1-2.256,6.324Zm2.238,3.279a6.133,6.133,0,0,0,.626-.032,6.04,6.04,0,1,0-6.624-5.394c.019.186.047.37.083.551a6.67,6.67,0,0,1-1.879-2.752c-.976-2.759.08-5.7,2.976-8.287a8.226,8.226,0,0,1,6.21-1.764,11.833,11.833,0,0,1,8.212,4.5c4.539,5.776,3.033,9.951-.626,14.443-3.947,4.846-8.285,4.864-10.52,4.442a9.35,9.35,0,0,1-6.091-3.925c.386-.018.775-.053,1.164-.108a14.208,14.208,0,0,0,5.149-1.817,6,6,0,0,0,1.321.147Zm4.6-41.061a20.523,20.523,0,0,1,5.658-.23,23.974,23.974,0,0,0,9.115,9.253,12.8,12.8,0,0,1,6.261,8.091,13.654,13.654,0,0,1,.1,6.15,9.489,9.489,0,0,0-.79-.652A11.412,11.412,0,0,0,58.354,23.4a5.021,5.021,0,0,0,.827-4.812C57.873,14.7,54.4,13.9,50.37,12.968a32.042,32.042,0,0,1-9.659-3.457,14.534,14.534,0,0,0-3.562-1.528c1.628-2.733,4.324-4.472,8.036-5.175ZM24.4,8.067A20.153,20.153,0,0,0,26.6,4.1c1.731-.079,6.147.066,8.721,2.14a13.12,13.12,0,0,0-.772,1.337,12.342,12.342,0,0,0-7.917,2.621,15.225,15.225,0,0,0-1.852,1.663,8.788,8.788,0,0,0-2.536.536A12.354,12.354,0,0,1,24.4,8.067ZM10.563,23.494c.7-.647,2.915-2.672,5.551-4.656a30.177,30.177,0,0,1,6.351-3.885,11.857,11.857,0,0,0-1.816,7.373c-5.04,3.582-9.336,10.765-8.3,18.431a12.319,12.319,0,0,0,.993,3.531,9.259,9.259,0,0,1-2.783-3.242c-3.277-6.2-.542-15.792.006-17.554Zm-.057,26.335a9.547,9.547,0,0,1-.288-5.007,12.516,12.516,0,0,0,5.914,3.472l.067.077a18.23,18.23,0,0,1,3.147,4.547,30.717,30.717,0,0,0,1.845,3.422c-.017.029-.033.059-.048.09a7.956,7.956,0,0,0-.692,2.983,23.762,23.762,0,0,1-9.579-4.048,11.748,11.748,0,0,0-.366-5.536ZM56.412,68.682a19.661,19.661,0,0,0-2.828,1.865c-3.2,2.73-6.6,3.913-9.575,3.331a21.3,21.3,0,0,1-5.572-2.157,61.153,61.153,0,0,0-6.487-2.86c-4.5-1.659-7.45-3.946-8.545-6.615a6.291,6.291,0,0,1-.421-3.361,22.8,22.8,0,0,0,2.676,2.841,15.012,15.012,0,0,0,8.012,3.913,10.882,10.882,0,0,0,1.316.08,10.33,10.33,0,0,0,3.985-.8c.015.016.03.033.046.048A13.322,13.322,0,0,0,46.012,68.4a10.959,10.959,0,0,0,1.572.115,10.206,10.206,0,0,0,6.839-2.645,30.052,30.052,0,0,1,7.671-4.679l.518-.244c-.3,4.292-3.295,6.04-6.2,7.737ZM73.046,52.714a21.936,21.936,0,0,1-3.743,3.8,17.026,17.026,0,0,0,3.327-5.465,10.073,10.073,0,0,0,.417-5.5,1.231,1.231,0,0,0,.19-.43A36.8,36.8,0,0,1,74.96,40.58,13.494,13.494,0,0,1,78.376,47.7c-1.86.924-3.622,3-5.33,5.019Z" transform="translate(-6.488 0)" fill="#fff"/>
</svg>
